# xmcd
#
# Track frame offsets:
#	150
#	17866
#	38736
#	66123
#	88772
#	114809
#	138874
#	170943
#	196458
#	225735
#	241576
#	272178
#	294105
#	319782
#
# Disc length: 4445 seconds
#
# Revision: 0
# Processed by: cddbd v1.5.2PL0 Copyright (c) Steve Scherf et al.
# Submitted via: dBpowerAMP V4.0
#
DISCID=bd115b0e
DTITLE=salsa variada - salsa añeja vol 10
DYEAR=1900
DGENRE=salsa
TTITLE0=sigue tu camino
TTITLE1=busca lo tuyo
TTITLE2=la equivocada
TTITLE3=las muchachas
TTITLE4=libro de amor
TTITLE5=catalina la o
TTITLE6=que paso
TTITLE7=ajiaco caliente
TTITLE8=mi gente
TTITLE9=perico macoña
TTITLE10=ayer ame con pena
TTITLE11=temperatura
TTITLE12=rumbon
TTITLE13=si dios fuera negro
EXTD=todomedia ve golloson@hotmail.com
EXTT0=
EXTT1=
EXTT2=
EXTT3=
EXTT4=
EXTT5=
EXTT6=
EXTT7=
EXTT8=
EXTT9=
EXTT10=
EXTT11=
EXTT12=
EXTT13=
PLAYORDER=
